<svg id="Vector_Smart_Object" data-name="Vector Smart Object" xmlns="http://www.w3.org/2000/svg" xmlns:xlink="http://www.w3.org/1999/xlink" width="11" height="11" viewBox="0 0 11 11">
  <defs>
    <clipPath id="clip-path">
      <rect id="Rectangle_19" data-name="Rectangle 19" width="11" height="11" transform="translate(0 0)" fill="none"/>
    </clipPath>
  </defs>
  <g id="Group_38" data-name="Group 38">
    <g id="Group_37" data-name="Group 37" clip-path="url(#clip-path)">
      <path id="Path_33" data-name="Path 33" d="M0,5.5A5.5,5.5,0,1,0,5.5,0,5.5,5.5,0,0,0,0,5.5m9.747,0A4.247,4.247,0,1,1,5.5,1.253,4.247,4.247,0,0,1,9.747,5.5" fill="#4d4e50"/>
      <path id="Path_34" data-name="Path 34" d="M5.305,2.257V5.48a.171.171,0,0,0,.342,0V2.257a.171.171,0,1,0-.342,0" fill="#4d4e50"/>
      <path id="Path_35" data-name="Path 35" d="M2.48,6.728c-.087.036-.152.079-.145.1s.083,0,.17-.035L5.48,5.549c.087-.036.152-.079.145-.1s-.083,0-.17.036Z" fill="#4d4e50"/>
      <path id="Path_36" data-name="Path 36" d="M5.558,5.254a.25.25,0,1,0,0,.5H7.671a.25.25,0,0,0,0-.5Z" fill="#4d4e50"/>
      <path id="Path_37" data-name="Path 37" d="M5.1,5.472a.426.426,0,1,0,.426-.426.426.426,0,0,0-.426.426" fill="#4d4e50"/>
    </g>
  </g>
</svg>
