<svg id="Vector_Smart_Object" data-name="Vector Smart Object" xmlns="http://www.w3.org/2000/svg" xmlns:xlink="http://www.w3.org/1999/xlink" width="17" height="6" viewBox="0 0 17 6">
  <defs>
    <clipPath id="clip-path">
      <rect id="Rectangle_18" data-name="Rectangle 18" width="17" height="6" transform="translate(0 0)" fill="none"/>
    </clipPath>
  </defs>
  <g id="Group_36" data-name="Group 36">
    <g id="Group_35" data-name="Group 35" clip-path="url(#clip-path)">
      <path id="Path_32" data-name="Path 32" d="M6.425,3.637,3.948.619,4.614,0,10.3,2.333c1.667-.548,3.34-1.167,4.944-1.715.469-.137,1.61-.137,1.737.345s-.8,1.233-1.2,1.441a17.625,17.625,0,0,0-2.068.685c-2.61.892-8.562,2.886-8.562,2.886-.8.137-4.151-.345-3.746-.548.533-.142,3.41-1.167,5.019-1.792m-3.41.893h0L.469,3.3,0,3.708,1.273,5.22Z" fill="#595959"/>
    </g>
  </g>
</svg>
