<svg id="Vector_Smart_Object" data-name="Vector Smart Object" xmlns="http://www.w3.org/2000/svg" xmlns:xlink="http://www.w3.org/1999/xlink" width="10" height="15" viewBox="0 0 10 15">
  <defs>
    <clipPath id="clip-path">
      <rect id="Rectangle_21" data-name="Rectangle 21" width="10" height="15" fill="none"/>
    </clipPath>
  </defs>
  <g id="Group_42" data-name="Group 42">
    <g id="Group_41" data-name="Group 41" clip-path="url(#clip-path)">
      <path id="Path_39" data-name="Path 39" d="M7.832,6.082a2.28,2.28,0,0,0-2.168,2.3,2.24,2.24,0,0,0,2.168,2.3A2.207,2.207,0,0,0,10,8.386a2.244,2.244,0,0,0-2.168-2.3m-1.443,2.6.336-.353.549.589L8.943,7.147l.39.353L7.664,9.271l-.39.415-.327-.415Zm-1.61,5.375H5.5c.058,0,.058,0,.058.057v.829c0,.057,0,.057-.058.057H4.779c-.053,0-.115,0-.115-.057v-.829c0-.057.062-.057.115-.057m-2.442,0h.778a.053.053,0,0,1,.053.057v.829A.054.054,0,0,1,3.115,15H2.336a.056.056,0,0,1-.058-.057v-.829a.056.056,0,0,1,.058-.057M2.443,0h3a.376.376,0,0,1,.279.358V2.775H5.279V.829a.216.216,0,0,0-.225-.24H2.779a.246.246,0,0,0-.221.24V2.775H2.169V.358c0-.179.11-.358.274-.358M.611,2.954H7.222a.636.636,0,0,1,.611.65V5.846a2.488,2.488,0,0,0-2.39,2.539,2.488,2.488,0,0,0,2.39,2.539v2.3a.632.632,0,0,1-.611.65H.611A.635.635,0,0,1,0,13.229V3.6a.639.639,0,0,1,.611-.65" fill="#595959" fill-rule="evenodd"/>
    </g>
  </g>
</svg>
